<svg width="36" height="36" viewBox="0 0 36 36" fill="none" xmlns="http://www.w3.org/2000/svg">
  <path d="M18 24.4199C17.2089 24.4199 16.4355 24.6545 15.7777 25.094C15.1199 25.5336 14.6072 26.1583 14.3045 26.8892C14.0017 27.6201 13.9225 28.4244 14.0769 29.2003C14.2312 29.9762 14.6122 30.6889 15.1716 31.2483C15.731 31.8078 16.4437 32.1887 17.2196 32.3431C17.9956 32.4974 18.7998 32.4182 19.5307 32.1154C20.2616 31.8127 20.8864 31.3 21.3259 30.6422C21.7654 29.9844 22 29.211 22 28.4199C22 27.3591 21.5786 26.3416 20.8284 25.5915C20.0783 24.8414 19.0609 24.4199 18 24.4199ZM18 30.4199C17.6044 30.4199 17.2178 30.3026 16.8889 30.0829C16.56 29.8631 16.3036 29.5507 16.1522 29.1853C16.0009 28.8198 15.9613 28.4177 16.0384 28.0297C16.1156 27.6418 16.3061 27.2854 16.5858 27.0057C16.8655 26.726 17.2219 26.5355 17.6098 26.4584C17.9978 26.3812 18.3999 26.4208 18.7654 26.5722C19.1308 26.7235 19.4432 26.9799 19.6629 27.3088C19.8827 27.6377 20 28.0244 20 28.4199C20 28.9504 19.7893 29.4591 19.4142 29.8341C19.0391 30.2092 18.5304 30.4199 18 30.4199Z" fill="#000000"/>
  <path d="M26.21 21.8497C26.2872 21.7429 26.3426 21.6218 26.3728 21.4934C26.4031 21.3651 26.4076 21.232 26.3863 21.1019C26.3649 20.9718 26.318 20.8471 26.2483 20.7352C26.1785 20.6233 26.0874 20.5263 25.98 20.4497C24.4823 19.3742 22.7809 18.6154 20.98 18.2197L24.85 22.0897C25.064 22.2323 25.3248 22.2869 25.5781 22.2422C25.8313 22.1975 26.0576 22.0569 26.21 21.8497V21.8497Z" fill="#000000"/>
  <path d="M18.0499 10.7197C16.6523 10.7235 15.2587 10.8675 13.8899 11.1497L15.6299 12.8897C16.4321 12.7816 17.2404 12.7248 18.0499 12.7197C21.8297 12.7212 25.5209 13.8645 28.6399 15.9997C28.8586 16.125 29.1166 16.1631 29.3622 16.1064C29.6077 16.0496 29.8228 15.9022 29.9644 15.6937C30.106 15.4851 30.1636 15.2308 30.1256 14.9816C30.0877 14.7324 29.9571 14.5067 29.7599 14.3497C26.3113 11.9879 22.2297 10.7227 18.0499 10.7197V10.7197Z" fill="#000000"/>
  <path d="M33.5501 8.20035C29.8372 5.747 25.5949 4.21025 21.1721 3.71651C16.7494 3.22278 12.2726 3.78617 8.11011 5.36035L9.69011 6.93035C13.4559 5.64629 17.4661 5.24362 21.412 5.75332C25.3579 6.26303 29.1342 7.67153 32.4501 9.87035C32.6716 10.011 32.9394 10.059 33.1959 10.004C33.4524 9.949 33.6771 9.79539 33.8214 9.5763C33.9657 9.35722 34.0181 9.09019 33.9674 8.8328C33.9166 8.57541 33.7668 8.34827 33.5501 8.20035V8.20035Z" fill="#000000"/>
  <path d="M1.84009 4.74965L4.27009 7.17965C3.65009 7.51965 3.04009 7.87965 2.44009 8.27965C2.33109 8.35319 2.23765 8.44748 2.16509 8.55713C2.09253 8.66678 2.04228 8.78966 2.01721 8.91873C1.96657 9.1794 2.02157 9.44952 2.17009 9.66965C2.31861 9.88978 2.54849 10.0419 2.80917 10.0925C3.06984 10.1432 3.33996 10.0882 3.56009 9.93965C4.26009 9.46965 5.00009 8.99965 5.74009 8.64965L9.61009 12.5196C8.42693 13.0389 7.29527 13.6683 6.23009 14.3996C6.07277 14.5676 5.97822 14.7848 5.9624 15.0144C5.94657 15.244 6.01043 15.472 6.1432 15.66C6.27598 15.848 6.46954 15.9845 6.69122 16.0464C6.91291 16.1082 7.14915 16.0917 7.36009 15.9996C8.53686 15.1922 9.80165 14.5212 11.1301 13.9996L15.2901 18.1596C13.3744 18.5636 11.5694 19.3791 10.0001 20.5496C9.80463 20.7125 9.67861 20.9438 9.6477 21.1964C9.61679 21.4489 9.68332 21.7038 9.83373 21.909C9.98414 22.1142 10.2071 22.2544 10.4573 22.301C10.7074 22.3475 10.9659 22.297 11.1801 22.1596C12.8859 20.9207 14.899 20.1735 17.0001 19.9996L27.8001 30.7996L29.2101 29.3896L3.21009 3.38965L1.84009 4.74965Z" fill="#000000"/>
</svg>
