<svg width="36" height="36" viewBox="0 0 36 36" fill="none" xmlns="http://www.w3.org/2000/svg">
  <path d="M18 32.54C19.6569 32.54 21 31.1969 21 29.54C21 27.8832 19.6569 26.54 18 26.54C16.3431 26.54 15 27.8832 15 29.54C15 31.1969 16.3431 32.54 18 32.54Z" fill="#000000"/>
  <path d="M32.76 9.37976C28.3274 6.6058 23.2039 5.13477 17.975 5.13477C12.746 5.13477 7.62249 6.6058 3.18997 9.37976C3.01783 9.4849 2.8685 9.62346 2.7508 9.78726C2.63309 9.95106 2.5494 10.1368 2.50466 10.3335C2.45992 10.5301 2.45503 10.7338 2.49029 10.9324C2.52556 11.131 2.60025 11.3205 2.70997 11.4898L2.81997 11.6598C3.03087 11.9781 3.35597 12.2034 3.72815 12.289C4.10032 12.3746 4.49116 12.314 4.81997 12.1198C8.75343 9.64835 13.3045 8.33726 17.95 8.33726C22.5954 8.33726 27.1465 9.64835 31.08 12.1198C31.4088 12.314 31.7996 12.3746 32.1718 12.289C32.544 12.2034 32.8691 11.9781 33.08 11.6598L33.19 11.4898C33.3019 11.3235 33.3797 11.1367 33.4187 10.9401C33.4577 10.7434 33.4572 10.541 33.4172 10.3446C33.3772 10.1482 33.2984 9.96178 33.1856 9.79612C33.0728 9.63046 32.9281 9.48893 32.76 9.37976Z" fill="#000000"/>
  <path d="M28.8201 15.4403C25.5617 13.42 21.8039 12.3496 17.9701 12.3496C14.1362 12.3496 10.3784 13.42 7.12006 15.4403C6.95092 15.5471 6.80468 15.6863 6.68983 15.8501C6.57497 16.0138 6.49378 16.1988 6.45099 16.3941C6.40819 16.5895 6.40464 16.7914 6.44053 16.9882C6.47642 17.185 6.55104 17.3726 6.66006 17.5403L6.77006 17.7103C6.98097 18.0287 7.30607 18.2539 7.67824 18.3395C8.05042 18.4251 8.44125 18.3645 8.77006 18.1703C11.5261 16.4587 14.7058 15.5516 17.9501 15.5516C21.1944 15.5516 24.374 16.4587 27.1301 18.1703C27.4589 18.3645 27.8497 18.4251 28.2219 18.3395C28.5941 18.2539 28.9192 18.0287 29.1301 17.7103L29.2401 17.5403C29.3509 17.375 29.428 17.1895 29.4669 16.9943C29.5058 16.7991 29.5058 16.5981 29.4668 16.403C29.4277 16.2078 29.3505 16.0223 29.2395 15.8571C29.1285 15.6919 28.986 15.5502 28.8201 15.4403Z" fill="#000000"/>
  <path d="M24.88 21.4897C22.7935 20.2351 20.4047 19.5723 17.97 19.5723C15.5354 19.5723 13.1466 20.2351 11.06 21.4897C10.8912 21.5955 10.7452 21.7338 10.6305 21.8967C10.5157 22.0596 10.4346 22.2436 10.3918 22.4382C10.3489 22.6328 10.3453 22.8339 10.3811 23.0299C10.4168 23.2259 10.4913 23.4128 10.6 23.5797L10.7 23.7397C10.9201 24.0649 11.2574 24.2923 11.6415 24.3744C12.0255 24.4564 12.4263 24.3866 12.76 24.1797C14.339 23.2502 16.1378 22.76 17.97 22.76C19.8022 22.76 21.6011 23.2502 23.18 24.1797C23.5149 24.3856 23.9166 24.4538 24.3008 24.3699C24.6849 24.286 25.0215 24.0565 25.24 23.7297L25.34 23.5697C25.4486 23.4035 25.5228 23.2174 25.5585 23.0222C25.5941 22.827 25.5904 22.6267 25.5475 22.4329C25.5047 22.2392 25.4236 22.0559 25.309 21.8939C25.1943 21.732 25.0485 21.5945 24.88 21.4897Z" fill="#000000"/>
</svg>
